#!OML:ASF F:\VICON\USERDATA\INSTALL\rory3\rory3.ASF
:FULLY-SPECIFIED
:DEGREES
74
root 1.4646775585377658 17.838668220221706 50.11810990199203 -3.4529248445097713 -1.0059757108140885 -0.4512440869383567
lfemur 8.922101121428351 -4.3568745079688584 -23.278175212544237
ltibia 28.24414049314392
lfoot -2.868368738119247 -5.30367617515677
ltoes -5.09673498043202
rfemur -26.37935996680803 1.937518095934133 22.84988008111578
rtibia 37.48599088248199
rfoot -10.880550544410353 -3.491778409134244
rtoes 1.1240599009962629
lowerback 1.0 -1.6965498006065396 -1.1347405338628285
upperback -0.038066129953119754 -1.999334656587745 2.077879573716336
thorax -5.123337426500284 -0.9943819981778692 3.344950517689934
lowerneck -16.271333537860585 -2.620958894984275 -1.8408833757327954
upperneck 24.05458384548108 -3.070797869406836 -0.08029025426032946
head 10.478670326817825 -1.6214798205025753 -0.10004195155959897
lclavicle -1.8664339979710816e-15 -1.5387300311303951e-16
lhumerus -25.372137193171028 -1.6162687974416867 81.39405654855479
lradius 27.024885800137888
lwrist 4.176157080256731
lhand -27.193379089370357 24.15636721929377
lfingers nan
lthumb -0.47210026828935664 54.28649594847836
rclavicle -1.9263320630900178e-15 -1.8907692470571487e-16
rhumerus -33.0634474948188 -25.018370387638857 -77.94817095502262
rradius 28.879921326841064
rwrist -0.3119096430622923
rhand -18.064084409236113 1.0
rfingers nan
rthumb 8.403383295496985 -7.876652247164085
75
root 1.5087611922372859 17.847735631124213 50.49977323161517 -3.3834869390707762 -1.0875229284674566 -0.3675646047756198
lfemur 8.17811724202354 -4.353090947184895 -23.116203978971097
ltibia 32.11686569430245
lfoot -3.392859724492209 -4.874543013997229
ltoes -4.341566760742608
rfemur -25.562417768306556 1.918527831647736 23.110589333890278
rtibia 34.287564291859624
rfoot -11.265576813211755 -4.572897258964143
rtoes 0.9681354511375377
lowerback 1.0 -1.7439431362793854 -1.0944675877823782
upperback -0.03792984035107505 -2.0473052495388453 2.069089693591303
thorax -5.068264958361204 -1.0064565235050875 3.443335483580315
lowerneck -16.257005543799796 -2.6047630874291414 -1.8539071866457766
upperneck 24.16633581540653 -3.0290194456808734 -0.18854387620422752
head 10.502706899516411 -1.6113433937435655 -0.13286202855264825
lclavicle -1.8672978851637843e-15 -1.5457515219656613e-16
lhumerus -25.852224410323693 -1.5951272630062823 81.60251158885015
lradius 25.51808746778085
lwrist 4.424356565897412
lhand -27.198061032443096 24.099922176153992
lfingers nan
lthumb -0.4517399872252169 54.21564652389308
rclavicle -1.9287949128195717e-15 -1.9081184109160132e-16
rhumerus -33.58977460635123 -25.764046977945988 -77.294609773695
rradius 29.231558644544698
rwrist 0.150798513474804
rhand -18.03479169027915 1.0
rfingers nan
rthumb 8.418807145527818 -7.787248975367429
76
root 1.5454559352145993 17.853103180666565 50.31283326535067 -3.4162466751159704 -1.2566878220682893 -0.43491136092533944
lfemur 6.889750142218698 -4.129276103865287 -22.56918623110502
ltibia 36.58543253603084
lfoot -4.233420047064325 -4.414146247696962
ltoes -3.8011469686068726
rfemur -24.471984634967033 1.950626523570521 23.54692289056398
rtibia 32.22334869374264
rfoot -11.768095610956344 -5.920491070496888
rtoes 1.1507127154726233
lowerback 1.0 -1.7320253935840801 -0.9968754981926962
upperback 0.014697412408696292 -2.0179014069916468 2.0371610629590724
thorax -4.959167853102138 -0.9937108761413243 3.4446727769047216
lowerneck -16.247223639395944 -2.6046063433112936 -1.8613997906999333
upperneck 24.144749065832386 -3.0220438924555983 -0.2636318475813588
head 10.48584374319002 -1.6130513966064464 -0.16143996747773448
lclavicle -1.867365159793231e-15 -1.5453412431305397e-16
lhumerus -26.395421774173673 -1.4700667912891872 81.81647231971964
lradius 23.924551455724554
lwrist 4.9259199131504765
lhand -27.262070696268 23.995718508719303
lfingers nan
lthumb -0.4848640207017135 54.130455452343426
rclavicle -1.9324476335212795e-15 -1.9314376155642985e-16
rhumerus -33.9808195849717 -26.503974056735295 -76.57104135731215
rradius 29.54978513380309
rwrist 1.236524859221852
rhand -18.008408510331297 1.0
rfingers nan
rthumb 8.449572868555205 -7.681949909837981
77
root 1.5654199595666745 17.855024988056762 50.223465796085875 -3.3856288614037933 -1.377251739403831 -1.1213245677363737
lfemur 4.902295869047185 -3.73102334665451 -21.28058026162877
ltibia 41.595547872395485
lfoot -3.9421561176014293 -2.9487141626807762
ltoes -4.594960662259202
rfemur -23.299435630100092 2.223957247964855 24.545604575369264
rtibia 31.211101756177893
rfoot -12.557070538356179 -7.084319327655228
rtoes 1.5066945236025586
lowerback 1.0 -1.6551819452595509 -0.45368581912466643
upperback 0.04746324311599637 -1.8238188064592353 2.1353996248388505
thorax -4.94515002381191 -0.9018925881082807 3.3058187319058168
lowerneck -16.234241670083716 -2.6194408788855115 -1.839604946164678
upperneck 24.019963092398736 -3.0456515671065976 -0.3217266534845804
head 10.433272168592449 -1.6255225932333348 -0.1921868603785193
lclavicle -1.8654285072510673e-15 -1.5325473805830128e-16
lhumerus -27.019469898259597 -1.1906134594428082 82.0234382044543
lradius 22.444066040718315
lwrist 5.486734362378159
lhand -27.288578659525314 23.93122996650198
lfingers nan
lthumb -0.5230854264193653 54.05483057408089
rclavicle -1.9344726584071924e-15 -1.9516621024155282e-16
rhumerus -34.24660941723117 -27.216925560791577 -75.8212913374317
rradius 29.795250251834076
rwrist 2.5306763744208416
rhand -17.993926237924168 1.0
rfingers nan
rthumb 8.45829110648726 -7.652414121218146
